# xmcd
#
# Track frame offsets:
#	150
#	20099
#	39125
#	58301
#	76466
#	88904
#	102015
#	120586
#	137874
#	154187
#	171057
#	189270
#
# Disc length: 2817 seconds
#
# Revision: 0
# Processed by: cddbd v1.5.1PL0 Copyright (c) Steve Scherf et al.
# Submitted via: EasyCDDAExtractor 4.6.9.1
#
DISCID=980aff0c
DTITLE=Viva Hot Babes - Basketbol
DYEAR=2005
DGENRE=OPM
TTITLE0=Basketbol
TTITLE1=Coca Cola Bodies
TTITLE2=Bulaklak
TTITLE3=Mamang Gwapo
TTITLE4=Malaking Lalaki
TTITLE5=Pag-ibig Lang Ang Kailangan
TTITLE6=Ooh-Ah-Ah
TTITLE7=Kikay
TTITLE8=Oops-Ay!
TTITLE9=Ang Lalaki
TTITLE10=Batuta Ng Pulis
TTITLE11=Hotbabes
EXTD=
EXTT0=
EXTT1=
EXTT2=
EXTT3=
EXTT4=
EXTT5=
EXTT6=
EXTT7=
EXTT8=
EXTT9=
EXTT10=
EXTT11=
PLAYORDER=
